# xmcd CD database file
#
# Track frame offsets:
#	151
#	8292
#	23655
#	34395
#	49807
#	66503
#	76118
#	93904
#	107443
#	125535
#	140034
#	159410
#	169229
#	183491
#	197467
#	211034
#
# Disc length: 2995 seconds
#
# Revision: 1
# Processed by: cddbd v1.5.2PL0 Copyright (c) Steve Scherf et al.
# Submitted via: CDex 1.70beta2
#
DISCID=c90bb110
DTITLE=Lightnin' Hopkins - The best of Lightnin' Hopkins
DYEAR=2002
DGENRE=Blues
TTITLE0=Intro
TTITLE1=Big car blues
TTITLE2=Coffee house blues
TTITLE3=Stool pigeon blues
TTITLE4=Ball of twine
TTITLE5=Mary Lou
TTITLE6=Want to come home
TTITLE7=Rolling and rolling
TTITLE8=Devil is watching you
TTITLE9=Please dont quit me
TTITLE10=Coon is hard to catch
TTITLE11=Heavy snow
TTITLE12=Walking round in circles
TTITLE13=War is starting again
TTITLE14=Got me a louisiana woman
TTITLE15=Mojo hand
EXTD=YEAR: 2002
EXTT0=
EXTT1=
EXTT2=
EXTT3=
EXTT4=
EXTT5=
EXTT6=
EXTT7=
EXTT8=
EXTT9=
EXTT10=
EXTT11=
EXTT12=
EXTT13=
EXTT14=
EXTT15=
PLAYORDER=
